<?xml version="1.0" encoding="UTF-8" standalone="no"?>
<!DOCTYPE svg PUBLIC "-//W3C//DTD SVG 1.1//EN"
 "http://www.w3.org/Graphics/SVG/1.1/DTD/svg11.dtd">
<!-- Generated by graphviz version 2.43.0 (0)
 -->
<!-- Title: %3 Pages: 1 -->
<svg width="1424pt" height="1340pt"
 viewBox="0.00 0.00 1424.00 1340.00" xmlns="http://www.w3.org/2000/svg" xmlns:xlink="http://www.w3.org/1999/xlink">
<g id="graph0" class="graph" transform="scale(1 1) rotate(0) translate(4 1336)">
<title>%3</title>
<polygon fill="white" stroke="transparent" points="-4,4 -4,-1336 1420,-1336 1420,4 -4,4"/>
<!-- 8349912632571206563 -->
<g id="node1" class="node">
<title>8349912632571206563</title>
<polygon fill="none" stroke="black" points="710,-1332 276,-1332 276,-1296 710,-1296 710,-1332"/>
<text text-anchor="middle" x="493" y="-1309" font-family="Helvetica,sans-Serif" font-size="20.00">Assign(Assign, pickup_hour, PropertyMap)</text>
</g>
<!-- &#45;8213416990543010840 -->
<g id="node2" class="node">
<title>&#45;8213416990543010840</title>
<polygon fill="none" stroke="black" points="740.5,-1260 485.5,-1260 485.5,-1224 740.5,-1224 740.5,-1260"/>
<text text-anchor="middle" x="613" y="-1237" font-family="Helvetica,sans-Serif" font-size="20.00">PropertyMap(Projection)</text>
</g>
<!-- &#45;8213416990543010840&#45;&gt;8349912632571206563 -->
<g id="edge1" class="edge">
<title>&#45;8213416990543010840&#45;&gt;8349912632571206563</title>
<path fill="none" stroke="black" d="M583.64,-1260.12C567.95,-1269.28 548.44,-1280.66 531.55,-1290.52"/>
<polygon fill="black" stroke="black" points="529.34,-1287.75 522.47,-1295.81 532.87,-1293.79 529.34,-1287.75"/>
</g>
<!-- 4267839497532799812 -->
<g id="node3" class="node">
<title>4267839497532799812</title>
<polygon fill="none" stroke="black" points="868.5,-1188 443.5,-1188 443.5,-1152 868.5,-1152 868.5,-1188"/>
<text text-anchor="middle" x="656" y="-1165" font-family="Helvetica,sans-Serif" font-size="20.00">Projection(Assign, tpep_pickup_datetime)</text>
</g>
<!-- 4267839497532799812&#45;&gt;&#45;8213416990543010840 -->
<g id="edge3" class="edge">
<title>4267839497532799812&#45;&gt;&#45;8213416990543010840</title>
<path fill="none" stroke="black" d="M645.37,-1188.3C640.37,-1196.44 634.31,-1206.31 628.79,-1215.3"/>
<polygon fill="black" stroke="black" points="625.76,-1213.54 623.51,-1223.9 631.72,-1217.21 625.76,-1213.54"/>
</g>
<!-- &#45;5099065661073602973 -->
<g id="node4" class="node">
<title>&#45;5099065661073602973</title>
<polygon fill="none" stroke="black" points="792.5,-1116 277.5,-1116 277.5,-1080 792.5,-1080 792.5,-1116"/>
<text text-anchor="middle" x="535" y="-1093" font-family="Helvetica,sans-Serif" font-size="20.00">Assign(Assign, pickup_day_of_week, PropertyMap)</text>
</g>
<!-- &#45;5099065661073602973&#45;&gt;8349912632571206563 -->
<g id="edge2" class="edge">
<title>&#45;5099065661073602973&#45;&gt;8349912632571206563</title>
<path fill="none" stroke="black" d="M477.75,-1116.04C460.67,-1124.09 443.89,-1135.65 434,-1152 407.17,-1196.39 444.19,-1254.93 470.58,-1287.8"/>
<polygon fill="black" stroke="black" points="467.94,-1290.11 477.01,-1295.58 473.33,-1285.65 467.94,-1290.11"/>
</g>
<!-- &#45;5099065661073602973&#45;&gt;4267839497532799812 -->
<g id="edge4" class="edge">
<title>&#45;5099065661073602973&#45;&gt;4267839497532799812</title>
<path fill="none" stroke="black" d="M564.6,-1116.12C580.57,-1125.36 600.46,-1136.87 617.61,-1146.79"/>
<polygon fill="black" stroke="black" points="615.88,-1149.83 626.29,-1151.81 619.38,-1143.77 615.88,-1149.83"/>
</g>
<!-- 2318091857478201161 -->
<g id="node5" class="node">
<title>2318091857478201161</title>
<polygon fill="none" stroke="black" points="782.5,-1044 527.5,-1044 527.5,-1008 782.5,-1008 782.5,-1044"/>
<text text-anchor="middle" x="655" y="-1021" font-family="Helvetica,sans-Serif" font-size="20.00">PropertyMap(Projection)</text>
</g>
<!-- 2318091857478201161&#45;&gt;&#45;5099065661073602973 -->
<g id="edge6" class="edge">
<title>2318091857478201161&#45;&gt;&#45;5099065661073602973</title>
<path fill="none" stroke="black" d="M625.64,-1044.12C609.95,-1053.28 590.44,-1064.66 573.55,-1074.52"/>
<polygon fill="black" stroke="black" points="571.34,-1071.75 564.47,-1079.81 574.87,-1077.79 571.34,-1071.75"/>
</g>
<!-- &#45;7291421838464315088 -->
<g id="node6" class="node">
<title>&#45;7291421838464315088</title>
<polygon fill="none" stroke="black" points="910.5,-972 485.5,-972 485.5,-936 910.5,-936 910.5,-972"/>
<text text-anchor="middle" x="698" y="-949" font-family="Helvetica,sans-Serif" font-size="20.00">Projection(Assign, tpep_pickup_datetime)</text>
</g>
<!-- &#45;7291421838464315088&#45;&gt;2318091857478201161 -->
<g id="edge7" class="edge">
<title>&#45;7291421838464315088&#45;&gt;2318091857478201161</title>
<path fill="none" stroke="black" d="M687.37,-972.3C682.37,-980.44 676.31,-990.31 670.79,-999.3"/>
<polygon fill="black" stroke="black" points="667.76,-997.54 665.51,-1007.9 673.72,-1001.21 667.76,-997.54"/>
</g>
<!-- 5112945419686897000 -->
<g id="node7" class="node">
<title>5112945419686897000</title>
<polygon fill="none" stroke="black" points="808.5,-900 345.5,-900 345.5,-864 808.5,-864 808.5,-900"/>
<text text-anchor="middle" x="577" y="-877" font-family="Helvetica,sans-Serif" font-size="20.00">Assign(Assign, pickup_months, PropertyMap)</text>
</g>
<!-- 5112945419686897000&#45;&gt;&#45;5099065661073602973 -->
<g id="edge5" class="edge">
<title>5112945419686897000&#45;&gt;&#45;5099065661073602973</title>
<path fill="none" stroke="black" d="M519.75,-900.04C502.67,-908.09 485.89,-919.65 476,-936 449.17,-980.39 486.19,-1038.93 512.58,-1071.8"/>
<polygon fill="black" stroke="black" points="509.94,-1074.11 519.01,-1079.58 515.33,-1069.65 509.94,-1074.11"/>
</g>
<!-- 5112945419686897000&#45;&gt;&#45;7291421838464315088 -->
<g id="edge8" class="edge">
<title>5112945419686897000&#45;&gt;&#45;7291421838464315088</title>
<path fill="none" stroke="black" d="M606.6,-900.12C622.57,-909.36 642.46,-920.87 659.61,-930.79"/>
<polygon fill="black" stroke="black" points="657.88,-933.83 668.29,-935.81 661.38,-927.77 657.88,-933.83"/>
</g>
<!-- 3889017192301116139 -->
<g id="node8" class="node">
<title>3889017192301116139</title>
<polygon fill="none" stroke="black" points="824.5,-828 569.5,-828 569.5,-792 824.5,-792 824.5,-828"/>
<text text-anchor="middle" x="697" y="-805" font-family="Helvetica,sans-Serif" font-size="20.00">PropertyMap(Projection)</text>
</g>
<!-- 3889017192301116139&#45;&gt;5112945419686897000 -->
<g id="edge10" class="edge">
<title>3889017192301116139&#45;&gt;5112945419686897000</title>
<path fill="none" stroke="black" d="M667.64,-828.12C651.95,-837.28 632.44,-848.66 615.55,-858.52"/>
<polygon fill="black" stroke="black" points="613.34,-855.75 606.47,-863.81 616.87,-861.79 613.34,-855.75"/>
</g>
<!-- 6312512489943841953 -->
<g id="node9" class="node">
<title>6312512489943841953</title>
<polygon fill="none" stroke="black" points="952.5,-756 527.5,-756 527.5,-720 952.5,-720 952.5,-756"/>
<text text-anchor="middle" x="740" y="-733" font-family="Helvetica,sans-Serif" font-size="20.00">Projection(Assign, tpep_pickup_datetime)</text>
</g>
<!-- 6312512489943841953&#45;&gt;3889017192301116139 -->
<g id="edge11" class="edge">
<title>6312512489943841953&#45;&gt;3889017192301116139</title>
<path fill="none" stroke="black" d="M729.37,-756.3C724.37,-764.44 718.31,-774.31 712.79,-783.3"/>
<polygon fill="black" stroke="black" points="709.76,-781.54 707.51,-791.9 715.72,-785.21 709.76,-781.54"/>
</g>
<!-- &#45;8698745995594983095 -->
<g id="node10" class="node">
<title>&#45;8698745995594983095</title>
<polygon fill="none" stroke="black" points="880,-684 358,-684 358,-648 880,-648 880,-684"/>
<text text-anchor="middle" x="619" y="-661" font-family="Helvetica,sans-Serif" font-size="20.00">Assign(Assign, tpep_dropoff_datetime, ToDatetime)</text>
</g>
<!-- &#45;8698745995594983095&#45;&gt;5112945419686897000 -->
<g id="edge9" class="edge">
<title>&#45;8698745995594983095&#45;&gt;5112945419686897000</title>
<path fill="none" stroke="black" d="M561.75,-684.04C544.67,-692.09 527.89,-703.65 518,-720 491.17,-764.39 528.19,-822.93 554.58,-855.8"/>
<polygon fill="black" stroke="black" points="551.94,-858.11 561.01,-863.58 557.33,-853.65 551.94,-858.11"/>
</g>
<!-- &#45;8698745995594983095&#45;&gt;6312512489943841953 -->
<g id="edge12" class="edge">
<title>&#45;8698745995594983095&#45;&gt;6312512489943841953</title>
<path fill="none" stroke="black" d="M648.6,-684.12C664.57,-693.36 684.46,-704.87 701.61,-714.79"/>
<polygon fill="black" stroke="black" points="699.88,-717.83 710.29,-719.81 703.38,-711.77 699.88,-717.83"/>
</g>
<!-- &#45;7671807438702274989 -->
<g id="node11" class="node">
<title>&#45;7671807438702274989</title>
<polygon fill="none" stroke="black" points="862,-612 620,-612 620,-576 862,-576 862,-612"/>
<text text-anchor="middle" x="741" y="-589" font-family="Helvetica,sans-Serif" font-size="20.00">ToDatetime(Projection)</text>
</g>
<!-- &#45;7671807438702274989&#45;&gt;&#45;8698745995594983095 -->
<g id="edge13" class="edge">
<title>&#45;7671807438702274989&#45;&gt;&#45;8698745995594983095</title>
<path fill="none" stroke="black" d="M711.16,-612.12C695.06,-621.36 675,-632.87 657.71,-642.79"/>
<polygon fill="black" stroke="black" points="655.89,-639.8 648.96,-647.81 659.37,-645.87 655.89,-639.8"/>
</g>
<!-- 4820310681699078716 -->
<g id="node12" class="node">
<title>4820310681699078716</title>
<polygon fill="none" stroke="black" points="1003,-540 573,-540 573,-504 1003,-504 1003,-540"/>
<text text-anchor="middle" x="788" y="-517" font-family="Helvetica,sans-Serif" font-size="20.00">Projection(Assign, tpep_dropoff_datetime)</text>
</g>
<!-- 4820310681699078716&#45;&gt;&#45;7671807438702274989 -->
<g id="edge15" class="edge">
<title>4820310681699078716&#45;&gt;&#45;7671807438702274989</title>
<path fill="none" stroke="black" d="M776.38,-540.3C770.86,-548.53 764.15,-558.52 758.07,-567.58"/>
<polygon fill="black" stroke="black" points="755.15,-565.64 752.48,-575.9 760.96,-569.54 755.15,-565.64"/>
</g>
<!-- 7521022309755144653 -->
<g id="node13" class="node">
<title>7521022309755144653</title>
<polygon fill="none" stroke="black" points="916,-468 416,-468 416,-432 916,-432 916,-468"/>
<text text-anchor="middle" x="666" y="-445" font-family="Helvetica,sans-Serif" font-size="20.00">Assign(Drop, tpep_pickup_datetime, ToDatetime)</text>
</g>
<!-- 7521022309755144653&#45;&gt;&#45;8698745995594983095 -->
<g id="edge14" class="edge">
<title>7521022309755144653&#45;&gt;&#45;8698745995594983095</title>
<path fill="none" stroke="black" d="M607.93,-468.04C590.77,-476.08 573.94,-487.63 564,-504 537.26,-548.03 572.48,-606.8 597.65,-639.78"/>
<polygon fill="black" stroke="black" points="595.17,-642.29 604.11,-647.98 600.67,-637.96 595.17,-642.29"/>
</g>
<!-- 7521022309755144653&#45;&gt;4820310681699078716 -->
<g id="edge16" class="edge">
<title>7521022309755144653&#45;&gt;4820310681699078716</title>
<path fill="none" stroke="black" d="M695.84,-468.12C711.94,-477.36 732,-488.87 749.29,-498.79"/>
<polygon fill="black" stroke="black" points="747.63,-501.87 758.04,-503.81 751.11,-495.8 747.63,-501.87"/>
</g>
<!-- 2667318931853529562 -->
<g id="node14" class="node">
<title>2667318931853529562</title>
<polygon fill="none" stroke="black" points="903,-396 661,-396 661,-360 903,-360 903,-396"/>
<text text-anchor="middle" x="782" y="-373" font-family="Helvetica,sans-Serif" font-size="20.00">ToDatetime(Projection)</text>
</g>
<!-- 2667318931853529562&#45;&gt;7521022309755144653 -->
<g id="edge18" class="edge">
<title>2667318931853529562&#45;&gt;7521022309755144653</title>
<path fill="none" stroke="black" d="M753.62,-396.12C738.46,-405.28 719.59,-416.66 703.26,-426.52"/>
<polygon fill="black" stroke="black" points="701.24,-423.65 694.49,-431.81 704.86,-429.64 701.24,-423.65"/>
</g>
<!-- 5125452650861236953 -->
<g id="node15" class="node">
<title>5125452650861236953</title>
<polygon fill="none" stroke="black" points="1028,-324 620,-324 620,-288 1028,-288 1028,-324"/>
<text text-anchor="middle" x="824" y="-301" font-family="Helvetica,sans-Serif" font-size="20.00">Projection(Drop, tpep_pickup_datetime)</text>
</g>
<!-- 5125452650861236953&#45;&gt;2667318931853529562 -->
<g id="edge19" class="edge">
<title>5125452650861236953&#45;&gt;2667318931853529562</title>
<path fill="none" stroke="black" d="M813.62,-324.3C808.74,-332.44 802.81,-342.31 797.42,-351.3"/>
<polygon fill="black" stroke="black" points="794.41,-349.52 792.26,-359.9 800.41,-353.12 794.41,-349.52"/>
</g>
<!-- &#45;639252829135404520 -->
<g id="node16" class="node">
<title>&#45;639252829135404520</title>
<polygon fill="none" stroke="black" points="782.5,-252 633.5,-252 633.5,-216 782.5,-216 782.5,-252"/>
<text text-anchor="middle" x="708" y="-229" font-family="Helvetica,sans-Serif" font-size="20.00">Drop(Concat)</text>
</g>
<!-- &#45;639252829135404520&#45;&gt;7521022309755144653 -->
<g id="edge17" class="edge">
<title>&#45;639252829135404520&#45;&gt;7521022309755144653</title>
<path fill="none" stroke="black" d="M653.98,-252.04C637.23,-260.15 620.64,-271.74 611,-288 584.86,-332.08 619.41,-390.36 644.4,-423.35"/>
<polygon fill="black" stroke="black" points="641.9,-425.83 650.82,-431.56 647.41,-421.52 641.9,-425.83"/>
</g>
<!-- &#45;639252829135404520&#45;&gt;5125452650861236953 -->
<g id="edge20" class="edge">
<title>&#45;639252829135404520&#45;&gt;5125452650861236953</title>
<path fill="none" stroke="black" d="M736.38,-252.12C751.54,-261.28 770.41,-272.66 786.74,-282.52"/>
<polygon fill="black" stroke="black" points="785.14,-285.64 795.51,-287.81 788.76,-279.65 785.14,-285.64"/>
</g>
<!-- 6683312751715704291 -->
<g id="node17" class="node">
<title>6683312751715704291</title>
<polygon fill="none" stroke="black" points="1112.5,-180 303.5,-180 303.5,-144 1112.5,-144 1112.5,-180"/>
<text text-anchor="middle" x="708" y="-157" font-family="Helvetica,sans-Serif" font-size="20.00">Concat(ArrowStringConversion, ArrowStringConversion, ArrowStringConversion)</text>
</g>
<!-- 6683312751715704291&#45;&gt;&#45;639252829135404520 -->
<g id="edge21" class="edge">
<title>6683312751715704291&#45;&gt;&#45;639252829135404520</title>
<path fill="none" stroke="black" d="M708,-180.3C708,-188.02 708,-197.29 708,-205.89"/>
<polygon fill="black" stroke="black" points="704.5,-205.9 708,-215.9 711.5,-205.9 704.5,-205.9"/>
</g>
<!-- 8064908030747349350 -->
<g id="node18" class="node">
<title>8064908030747349350</title>
<polygon fill="none" stroke="black" points="460,-108 0,-108 0,-72 460,-72 460,-108"/>
<text text-anchor="middle" x="230" y="-85" font-family="Helvetica,sans-Serif" font-size="20.00">ArrowStringConversion(FromMapProjectable)</text>
</g>
<!-- 8064908030747349350&#45;&gt;6683312751715704291 -->
<g id="edge23" class="edge">
<title>8064908030747349350&#45;&gt;6683312751715704291</title>
<path fill="none" stroke="black" d="M346.32,-108.03C417.45,-118.45 508.47,-131.78 581.41,-142.46"/>
<polygon fill="black" stroke="black" points="581.17,-145.96 591.57,-143.95 582.19,-139.04 581.17,-145.96"/>
</g>
<!-- 5563840365790637142 -->
<g id="node19" class="node">
<title>5563840365790637142</title>
<polygon fill="none" stroke="black" points="338.5,-36 121.5,-36 121.5,0 338.5,0 338.5,-36"/>
<text text-anchor="middle" x="230" y="-13" font-family="Helvetica,sans-Serif" font-size="20.00">FromMapProjectable</text>
</g>
<!-- 5563840365790637142&#45;&gt;8064908030747349350 -->
<g id="edge25" class="edge">
<title>5563840365790637142&#45;&gt;8064908030747349350</title>
<path fill="none" stroke="black" d="M230,-36.3C230,-44.02 230,-53.29 230,-61.89"/>
<polygon fill="black" stroke="black" points="226.5,-61.9 230,-71.9 233.5,-61.9 226.5,-61.9"/>
</g>
<!-- 4650808902045013353 -->
<g id="node20" class="node">
<title>4650808902045013353</title>
<polygon fill="none" stroke="black" points="938,-108 478,-108 478,-72 938,-72 938,-108"/>
<text text-anchor="middle" x="708" y="-85" font-family="Helvetica,sans-Serif" font-size="20.00">ArrowStringConversion(FromMapProjectable)</text>
</g>
<!-- 4650808902045013353&#45;&gt;6683312751715704291 -->
<g id="edge22" class="edge">
<title>4650808902045013353&#45;&gt;6683312751715704291</title>
<path fill="none" stroke="black" d="M708,-108.3C708,-116.02 708,-125.29 708,-133.89"/>
<polygon fill="black" stroke="black" points="704.5,-133.9 708,-143.9 711.5,-133.9 704.5,-133.9"/>
</g>
<!-- &#45;1610793213552338092 -->
<g id="node21" class="node">
<title>&#45;1610793213552338092</title>
<polygon fill="none" stroke="black" points="816.5,-36 599.5,-36 599.5,0 816.5,0 816.5,-36"/>
<text text-anchor="middle" x="708" y="-13" font-family="Helvetica,sans-Serif" font-size="20.00">FromMapProjectable</text>
</g>
<!-- &#45;1610793213552338092&#45;&gt;4650808902045013353 -->
<g id="edge26" class="edge">
<title>&#45;1610793213552338092&#45;&gt;4650808902045013353</title>
<path fill="none" stroke="black" d="M708,-36.3C708,-44.02 708,-53.29 708,-61.89"/>
<polygon fill="black" stroke="black" points="704.5,-61.9 708,-71.9 711.5,-61.9 704.5,-61.9"/>
</g>
<!-- 4801741307460253311 -->
<g id="node22" class="node">
<title>4801741307460253311</title>
<polygon fill="none" stroke="black" points="1416,-108 956,-108 956,-72 1416,-72 1416,-108"/>
<text text-anchor="middle" x="1186" y="-85" font-family="Helvetica,sans-Serif" font-size="20.00">ArrowStringConversion(FromMapProjectable)</text>
</g>
<!-- 4801741307460253311&#45;&gt;6683312751715704291 -->
<g id="edge24" class="edge">
<title>4801741307460253311&#45;&gt;6683312751715704291</title>
<path fill="none" stroke="black" d="M1069.68,-108.03C998.55,-118.45 907.53,-131.78 834.59,-142.46"/>
<polygon fill="black" stroke="black" points="833.81,-139.04 824.43,-143.95 834.83,-145.96 833.81,-139.04"/>
</g>
<!-- &#45;5142094160080912819 -->
<g id="node23" class="node">
<title>&#45;5142094160080912819</title>
<polygon fill="none" stroke="black" points="1294.5,-36 1077.5,-36 1077.5,0 1294.5,0 1294.5,-36"/>
<text text-anchor="middle" x="1186" y="-13" font-family="Helvetica,sans-Serif" font-size="20.00">FromMapProjectable</text>
</g>
<!-- &#45;5142094160080912819&#45;&gt;4801741307460253311 -->
<g id="edge27" class="edge">
<title>&#45;5142094160080912819&#45;&gt;4801741307460253311</title>
<path fill="none" stroke="black" d="M1186,-36.3C1186,-44.02 1186,-53.29 1186,-61.89"/>
<polygon fill="black" stroke="black" points="1182.5,-61.9 1186,-71.9 1189.5,-61.9 1182.5,-61.9"/>
</g>
</g>
</svg>
